<?xml version="1.0" encoding="utf-8"?>
<!-- Generator: Adobe Illustrator 21.1.0, SVG Export Plug-In . SVG Version: 6.00 Build 0)  -->
<svg version="1.1" id="Layer_1" xmlns="http://www.w3.org/2000/svg" xmlns:xlink="http://www.w3.org/1999/xlink" x="0px" y="0px"
	 viewBox="0 0 458.8 292.4" enable-background="new 0 0 458.8 292.4" xml:space="preserve">
<g>
	<polygon fill="#F2F4F5" points="147.7,221.1 57.1,221.6 56.2,24 145.5,24.5 	"/>
	<polygon fill="#E2E4E8" points="59.5,27.4 144.1,26.7 144.3,217.8 60.4,218.2 	"/>
	<polygon fill="#F2F4F5" points="276.3,22.9 416.8,22.2 413.5,221.3 281.9,221.7 	"/>
	<polygon fill="#E2E4E8" points="278.1,27.1 412.8,26.2 409.6,217.4 285.7,217.7 	"/>
	<polygon fill="#F2F4F5" points="208,44 208,221.3 147.7,221.1 146,45.7 	"/>
	<polygon fill="#E2E4E8" points="151,217.8 149.4,48.9 204.8,47.4 204.6,218 	"/>
	<polygon fill="#F2F4F5" points="277.1,53.9 208,53.3 208,221.3 281.9,221.7 	"/>
	<polygon fill="#E2E4E8" points="210.6,218.7 210.7,56 272.4,57.2 279.1,219 	"/>
</g>
<g>
	<polygon fill="#F2F4F5" points="147.5,221.1 56.9,221.6 56,24 145.3,24.5 	"/>
	<polygon fill="#E1E4E8" points="59.3,27.6 143.9,26.9 144.1,218.1 60.1,218.5 	"/>
	<polygon fill="#F2F4F5" points="276.1,22.9 416.6,22.2 413.3,221.3 281.7,221.7 	"/>
	<polygon fill="#FAFCFD" points="210,44 210,221.3 147.6,221.1 145.9,45.7 	"/>
	<polygon fill="#E8EAED" points="150.9,217.8 149.2,48.9 207.9,47.4 207.8,218 	"/>
	<polygon fill="#FAFCFD" points="276.9,53.9 207.8,53.3 207.8,221.3 281.7,221.7 	"/>
	<polygon fill="#E8EAED" points="209.1,218.7 209.2,56 272.1,57.2 279,219 	"/>
</g>
<rect x="59" y="173.6" fill="#EBEFF3" width="86.5" height="2.4"/>
<polygon fill="#FAFCFD" points="148.8,71 208.1,71.9 208.3,69 148.8,69 "/>
<polygon fill="#FAFCFD" points="150.2,102.1 207.9,101.3 208.2,99.2 150.2,99.2 "/>
<polygon fill="#FAFCFD" points="208.2,138.3 149.7,138.3 149.7,135.9 208.1,135.3 "/>
<rect x="150.7" y="178" fill="#EBEFF3" width="56.8" height="2.3"/>
<rect x="208.7" y="91.7" fill="#FAFCFD" width="65.8" height="2.5"/>
<rect x="208.8" y="111.6" fill="#FAFCFD" width="67.6" height="2.2"/>
<rect x="210.5" y="143.6" fill="#FAFCFD" width="66.5" height="3"/>
<rect x="278.6" y="54.4" fill="#EBEFF3" width="134.7" height="2.8"/>
<rect x="279.6" y="100.6" fill="#EBEFF3" width="132.6" height="2.2"/>
<rect x="280.3" y="139.8" fill="#EBEFF3" width="133.1" height="2.3"/>
<rect x="277.6" y="172.9" fill="#EBEFF3" width="133.1" height="2.3"/>
<rect x="347.7" y="25" fill="#EBEFF3" width="2.3" height="195"/>
<g>
	
		<rect x="279.2" y="37.1" transform="matrix(-0.9974 7.258397e-02 -7.258397e-02 -0.9974 562.6701 70.8567)" fill="#D1D5DA" width="1.7" height="17.2"/>
	<polygon fill="#D1D5DA" points="291,54.3 292.7,53.9 289.3,37.1 286.8,37.6 	"/>
	<polygon fill="#B2BBC4" points="282.2,54.3 285,54.1 283.6,35.5 280.1,35.6 	"/>
	
		<rect x="285.5" y="34.7" transform="matrix(-0.9799 0.1993 -0.1993 -0.9799 576.8418 30.8531)" fill="#F2F4F5" width="2.7" height="19.6"/>
	<polygon fill="#D1D5DA" points="294.5,54.6 299.4,53.2 294.7,36.6 289.6,37.6 	"/>
	<polygon fill="#D1D5DA" points="316,54.6 321,54.6 321.4,36.8 316,37.1 	"/>
	
		<rect x="299.4" y="35.6" transform="matrix(-1 -1.224647e-16 1.224647e-16 -1 606.9302 89.8428)" fill="#B2BBC4" width="8.2" height="18.7"/>
	<polygon fill="#F2F4F5" points="307.7,54.2 316.3,54.5 316.3,35 307.6,34.6 	"/>
</g>
<g>
	<rect x="202.8" y="50.7" fill="#D1D5DA" width="1.7" height="18"/>
	<rect x="200.8" y="49.4" fill="#D1D5DA" width="1.7" height="19.3"/>
	<rect x="198.8" y="49.9" fill="#D1D5DA" width="1.7" height="18.8"/>
	<rect x="196.8" y="51.8" fill="#D1D5DA" width="1.7" height="16.9"/>
	<rect x="194.8" y="48.3" fill="#D1D5DA" width="1.7" height="20.4"/>
	<rect x="192.9" y="50.2" fill="#D1D5DA" width="1.7" height="18.5"/>
	<rect x="190.9" y="49.1" fill="#D1D5DA" width="1.7" height="19.6"/>
	<rect x="188.9" y="49.9" fill="#D1D5DA" width="1.7" height="18.8"/>
	
		<rect x="185.9" y="50.7" transform="matrix(0.9909 0.1345 -0.1345 0.9909 9.7286 -24.5787)" fill="#D1D5DA" width="1.7" height="17.9"/>
</g>
<g>
	
		<rect x="66.2" y="155.4" transform="matrix(-1 -1.224647e-16 1.224647e-16 -1 135.5268 328.8274)" fill="#959DA5" width="3.2" height="18"/>
	
		<rect x="70" y="154.1" transform="matrix(-1 -1.224647e-16 1.224647e-16 -1 143.2415 327.5259)" fill="#959DA5" width="3.2" height="19.3"/>
	
		<rect x="73.9" y="154.6" transform="matrix(-1 -1.224647e-16 1.224647e-16 -1 150.9562 328.0423)" fill="#959DA5" width="3.2" height="18.8"/>
	
		<rect x="77.7" y="156.5" transform="matrix(-1 -1.224647e-16 1.224647e-16 -1 158.6708 329.9076)" fill="#959DA5" width="3.2" height="16.9"/>
	
		<rect x="81.6" y="153" transform="matrix(-1 -1.224647e-16 1.224647e-16 -1 166.3855 326.4362)" fill="#F2F4F5" width="3.2" height="20.4"/>
	
		<rect x="85.3" y="154.9" transform="matrix(-1 -1.224647e-16 1.224647e-16 -1 173.885 328.3014)" fill="#D1D5DA" width="3.2" height="18.5"/>
	
		<rect x="89.2" y="153.8" transform="matrix(-1 -1.224647e-16 1.224647e-16 -1 181.5996 327.2234)" fill="#B2BBC4" width="3.2" height="19.6"/>
	
		<rect x="93" y="154.6" transform="matrix(-1 -1.224647e-16 1.224647e-16 -1 189.3143 327.9835)" fill="#D1D5DA" width="3.2" height="18.8"/>
	<polygon fill="#B2BBC4" points="101.2,173.4 104.4,173.2 99.7,155.4 96.5,155.7 	"/>
</g>
<g>
	<polygon fill="#B2BBC4" points="377.3,100.7 372.5,100.7 374.5,63.2 379.9,63 	"/>
	
		<rect x="368.3" y="66.1" transform="matrix(0.9983 5.853802e-02 -5.853802e-02 0.9983 5.5104 -21.5592)" fill="#D1D5DA" width="4.8" height="34.3"/>
	<polygon fill="#E2E4E8" points="365.3,100.6 360.5,100.2 363.7,64 369.3,64.6 	"/>
	
		<rect x="355.2" y="65.4" transform="matrix(0.9996 -2.839208e-02 2.839208e-02 0.9996 -2.2092 10.1876)" fill="#B2BBC4" width="4.8" height="34.9"/>
	<rect x="350" y="67" fill="#FAFCFE" width="4.8" height="33.3"/>
</g>
<g>
	<polygon fill="#F6F8FA" points="68,64 60.9,64 60.4,33 68.6,32.2 	"/>
	<polygon fill="#F6F8FA" points="71.9,64 68.9,64 68.9,36.8 71.9,37.3 	"/>
	<rect x="92.4" y="38.8" fill="#B2BBC4" width="7.9" height="24.6"/>
	<polygon fill="#D1D5DA" points="75.3,64 72.1,64 72.3,35.3 75.3,34.9 	"/>
	<rect x="75.4" y="37.3" fill="#EBEFF3" width="2.8" height="26.7"/>
	<polygon fill="#FAFCFE" points="85,64 78.5,64 78.4,34.4 85,34.9 	"/>
	<path fill="#EBEFF3" d="M100.2,37.3V64h9.7c-0.1-9.1-0.4-18.3-0.6-27.4L100.2,37.3z"/>
	<path fill="#D1D5DA" d="M117.1,36.1l-7.9,0.6c0.3,9.1,0.5,18.3,0.6,27.4h7.1L117.1,36.1z"/>
	<rect x="85.4" y="42.1" fill="#EBEFF3" width="6.5" height="21.9"/>
</g>
<g>
	
		<rect x="173.7" y="74.3" transform="matrix(-1 -1.224647e-16 1.224647e-16 -1 350.7287 173.6824)" fill="#F6F8FA" width="3.3" height="25.1"/>
	
		<rect x="170.6" y="77.6" transform="matrix(-1 -1.224647e-16 1.224647e-16 -1 344.1317 176.964)" fill="#F6F8FA" width="3" height="21.8"/>
	
		<rect x="154" y="78.8" transform="matrix(-1 -1.224647e-16 1.224647e-16 -1 311.6308 177.6258)" fill="#D1D5DA" width="3.7" height="20.1"/>
	
		<rect x="167.3" y="75.6" transform="matrix(-1 -1.224647e-16 1.224647e-16 -1 337.6973 174.9454)" fill="#D1D5DA" width="3.2" height="23.8"/>
	
		<rect x="164.3" y="77.6" transform="matrix(-1 -1.224647e-16 1.224647e-16 -1 331.4216 176.964)" fill="#F6F8FA" width="2.8" height="21.8"/>
	
		<rect x="161.1" y="75.6" transform="matrix(-1 -1.224647e-16 1.224647e-16 -1 325.2549 174.9454)" fill="#D1D5DA" width="3" height="23.8"/>
	
		<rect x="150.6" y="77.6" transform="matrix(-1 -1.224647e-16 1.224647e-16 -1 304.4003 176.964)" fill="#F6F8FA" width="3.2" height="21.8"/>
	
		<rect x="157.9" y="81.5" transform="matrix(-1 -1.224647e-16 1.224647e-16 -1 318.8511 180.8459)" fill="#F6F8FA" width="3" height="17.9"/>
</g>
<g>
	
		<rect x="271.2" y="119.4" transform="matrix(-1 -1.224647e-16 1.224647e-16 -1 545.655 263.9387)" fill="#F2F4F5" width="3.3" height="25.1"/>
	
		<rect x="268" y="122.7" transform="matrix(-1 -1.224647e-16 1.224647e-16 -1 539.058 267.2202)" fill="#F2F4F5" width="3" height="21.8"/>
	
		<rect x="251.4" y="123.9" transform="matrix(-1 -1.224647e-16 1.224647e-16 -1 506.5571 267.8821)" fill="#F2F4F5" width="3.7" height="20.1"/>
	
		<rect x="264.7" y="120.7" transform="matrix(-1 -1.224647e-16 1.224647e-16 -1 532.6236 265.2017)" fill="#F2F4F5" width="3.2" height="23.8"/>
	
		<rect x="261.8" y="122.7" transform="matrix(-1 -1.224647e-16 1.224647e-16 -1 526.3479 267.2202)" fill="#F2F4F5" width="2.8" height="21.8"/>
	
		<rect x="258.6" y="120.7" transform="matrix(-1 -1.224647e-16 1.224647e-16 -1 520.1812 265.2017)" fill="#F2F4F5" width="3" height="23.8"/>
	
		<rect x="248.1" y="122.7" transform="matrix(-1 -1.224647e-16 1.224647e-16 -1 499.3266 267.2202)" fill="#F2F4F5" width="3.2" height="21.8"/>
	
		<rect x="255.4" y="126.6" transform="matrix(-1 -1.224647e-16 1.224647e-16 -1 513.7773 271.1021)" fill="#F2F4F5" width="3" height="17.9"/>
</g>
<g>
	
		<rect x="173.7" y="110.9" transform="matrix(-1 -1.224647e-16 1.224647e-16 -1 350.7287 246.9118)" fill="#D1D5DA" width="3.3" height="25.1"/>
	
		<rect x="170.6" y="114.2" transform="matrix(-1 -1.224647e-16 1.224647e-16 -1 344.1317 250.1934)" fill="#D1D5DA" width="3" height="21.8"/>
	
		<rect x="154" y="115.7" transform="matrix(-1 -1.224647e-16 1.224647e-16 -1 311.6308 251.5181)" fill="#D1D5DA" width="3.7" height="20.1"/>
	
		<rect x="167.3" y="112.2" transform="matrix(-1 -1.224647e-16 1.224647e-16 -1 337.6973 248.1748)" fill="#D1D5DA" width="3.2" height="23.8"/>
	
		<rect x="164.3" y="114.2" transform="matrix(-1 -1.224647e-16 1.224647e-16 -1 331.4216 250.1934)" fill="#D1D5DA" width="2.8" height="21.8"/>
	
		<rect x="161.1" y="112.2" transform="matrix(-1 -1.224647e-16 1.224647e-16 -1 325.2549 248.1748)" fill="#D1D5DA" width="3" height="23.8"/>
	
		<rect x="150.3" y="114.2" transform="matrix(-0.9996 2.736396e-02 -2.736396e-02 -0.9996 307.2032 246.0009)" fill="#D1D5DA" width="3.2" height="21.8"/>
	
		<rect x="157.9" y="118.1" transform="matrix(-1 -1.224647e-16 1.224647e-16 -1 318.8511 254.0753)" fill="#D1D5DA" width="3" height="17.9"/>
</g>
<g>
	
		<rect x="237.2" y="60.1" transform="matrix(-1 -1.224647e-16 1.224647e-16 -1 478.0282 151.5476)" fill="#D1D5DA" width="3.7" height="31.4"/>
	
		<rect x="233.6" y="64.2" transform="matrix(-1 -1.224647e-16 1.224647e-16 -1 470.6123 155.6624)" fill="#D1D5DA" width="3.4" height="27.3"/>
	
		<rect x="215" y="66.2" transform="matrix(-1 -1.224647e-16 1.224647e-16 -1 434.0768 157.4748)" fill="#D1D5DA" width="4.2" height="25.1"/>
	
		<rect x="229.9" y="61.6" transform="matrix(-1 -1.224647e-16 1.224647e-16 -1 463.3791 153.1313)" fill="#D1D5DA" width="3.6" height="29.9"/>
	
		<rect x="226.6" y="64.2" transform="matrix(-1 -1.224647e-16 1.224647e-16 -1 456.3052 155.6624)" fill="#D1D5DA" width="3.1" height="27.2"/>
	
		<rect x="223" y="61.6" transform="matrix(-1 -1.224647e-16 1.224647e-16 -1 449.3921 153.1313)" fill="#D1D5DA" width="3.4" height="29.9"/>
	
		<rect x="211.2" y="64.2" transform="matrix(-1 -1.224647e-16 1.224647e-16 -1 425.9488 155.6624)" fill="#D1D5DA" width="3.6" height="27.3"/>
	
		<rect x="219.4" y="69" transform="matrix(-1 -1.224647e-16 1.224647e-16 -1 442.1934 160.5299)" fill="#D1D5DA" width="3.4" height="22.5"/>
</g>
<g>
	<polygon fill="#F6F8FA" points="247.8,91.3 244.8,91.5 241,61.4 244.3,60.4 	"/>
	<polygon fill="#F6F8FA" points="251.4,91.3 248.6,91.3 247.1,65 249.8,65 	"/>
	<polygon fill="#EBEFF3" points="273.2,91.2 269.8,91.2 268.4,67 271.8,67 	"/>
	<polygon fill="#F6F8FA" points="255.2,91.3 252.3,91.3 250.6,62.5 253.5,62.5 	"/>
	<polygon fill="#F6F8FA" points="258.7,91.3 256.2,91.3 254.6,65 257.2,65 	"/>
	<polygon fill="#F6F8FA" points="266.4,91.4 263.7,91.9 257.5,63.6 260.2,63.1 	"/>
	<polygon fill="#F6F8FA" points="273.7,91.3 270.8,91.3 269.3,65 272.2,65 	"/>
	<polygon fill="#F6F8FA" points="269.2,91.3 266.4,91.3 265.2,69.6 267.9,69.6 	"/>
</g>
<g>
	<polygon fill="#B2BBC4" points="343.4,100.8 345.6,101 348.3,70.9 345.9,69.9 	"/>
	<polygon fill="#B2BBC4" points="340.9,100.8 342.9,100.8 344,74.5 342,74.5 	"/>
	<polygon fill="#B2BBC4" points="325.4,100.7 327.8,100.7 328.8,76.5 326.4,76.5 	"/>
	<polygon fill="#B2BBC4" points="338.2,100.8 340.3,100.8 341.5,72 339.4,72 	"/>
	<polygon fill="#B2BBC4" points="335.7,100.8 337.5,100.8 338.6,74.5 336.8,74.5 	"/>
	<polygon fill="#F2F4F5" points="330.3,100.9 332.2,101.4 336.6,73.1 334.7,72.6 	"/>
	<polygon fill="#B2BBC4" points="325.1,100.8 327.1,100.8 328.2,74.5 326.2,74.5 	"/>
	<polygon fill="#B2BBC4" points="328.3,100.8 330.2,100.8 331.1,79.1 329.2,79.1 	"/>
</g>
<g>
	
		<rect x="319.8" y="70.1" transform="matrix(-1 -1.224647e-16 1.224647e-16 -1 644.9294 170.9222)" fill="#EBEFF3" width="5.4" height="30.7"/>
	
		<rect x="314.5" y="74.1" transform="matrix(-1 -1.224647e-16 1.224647e-16 -1 633.9261 174.9408)" fill="#EBEFF3" width="4.9" height="26.7"/>
	
		<rect x="286.4" y="76.3" transform="matrix(-1 -1.224647e-16 1.224647e-16 -1 578.9096 177.077)" fill="#E2E4E8" width="6.1" height="24.6"/>
	
		<rect x="308.9" y="71.7" transform="matrix(-1 -1.224647e-16 1.224647e-16 -1 622.9229 172.4689)" fill="#B2BBC4" width="5.2" height="29.2"/>
	
		<rect x="303.7" y="74.1" transform="matrix(-1 -1.224647e-16 1.224647e-16 -1 611.9195 174.9408)" fill="#E2E4E8" width="4.5" height="26.7"/>
	
		<rect x="298" y="71.7" transform="matrix(-1 -1.224647e-16 1.224647e-16 -1 600.9162 172.4689)" fill="#E2E4E8" width="4.9" height="29.2"/>
	
		<rect x="281.4" y="74.1" transform="matrix(-1 -1.224647e-16 1.224647e-16 -1 567.9063 174.9408)" fill="#EBEFF3" width="5.2" height="26.7"/>
	
		<rect x="292.5" y="78.9" transform="matrix(-1 -1.224647e-16 1.224647e-16 -1 589.9129 179.6945)" fill="#EBEFF3" width="4.9" height="21.9"/>
</g>
<rect x="60.6" y="109.5" fill="#EBEFF3" width="7.1" height="26.7"/>
<rect x="70" y="114.7" transform="matrix(0.9792 0.2027 -0.2027 0.9792 26.9596 -12.2969)" fill="#B2BBC4" width="7.1" height="21.4"/>
<rect x="78.3" y="109.5" transform="matrix(0.9948 0.1022 -0.1022 0.9948 12.9793 -7.7148)" fill="#959DA5" width="7.1" height="26.7"/>
<rect x="86.4" y="105.8" transform="matrix(0.9994 3.329383e-02 -3.329383e-02 0.9994 4.0788 -2.9423)" fill="#F2F4F5" width="7.9" height="30.3"/>
<rect x="94.3" y="109.5" fill="#EBEFF3" width="7.1" height="26.7"/>
<g>
	<rect x="381.3" y="113.3" fill="#EBEFF3" width="5.1" height="26.7"/>
	<polygon fill="#B2BBC4" points="391.5,140.5 386.5,139.1 389.6,118.1 394.6,119.5 	"/>
	<polygon fill="#959DA5" points="398,140.3 393,139.6 394.9,113.1 400,113.8 	"/>
	<polygon fill="#F2F4F5" points="405.1,140.2 399.5,139.9 400.2,109.6 405.9,109.8 	"/>
	<rect x="405.4" y="113.3" fill="#EBEFF3" width="5.1" height="26.7"/>
</g>
<g>
	<polygon fill="#F2F4F5" points="331.4,139.4 328.3,141.4 316.9,114.9 320,113 	"/>
	<polygon fill="#B2BBC4" points="334.9,139.9 330.5,139.4 332.6,115.9 336,117.5 	"/>
	<polygon fill="#959DA5" points="338.3,139.9 334.9,139.9 336.3,111.3 339.7,111.1 	"/>
	<polygon fill="#D1D5DA" points="343.2,140.6 339.4,140.3 339.9,106.4 343.7,106.7 	"/>
	<rect x="343.5" y="110.6" fill="#EBEFF3" width="3.5" height="29.8"/>
</g>
<rect x="129.2" y="109.5" fill="#EBEFF3" width="7.1" height="26.7"/>
<rect x="136.4" y="109.5" fill="#959DA5" width="7.1" height="26.7"/>
<g>
	<rect x="98.7" y="66.6" fill="#D1D5DA" width="7.1" height="30.7"/>
	<rect x="60.7" y="69.5" fill="#B2BBC4" width="10.5" height="27.6"/>
	<rect x="91.3" y="70.5" fill="#F2F4F5" width="7.1" height="26.7"/>
	<rect x="77.6" y="70.5" transform="matrix(0.866 0.5 -0.5 0.866 52.8076 -29.3242)" fill="#F2F4F5" width="7.1" height="26.7"/>
</g>
<g>
	<rect x="406.7" y="28.2" fill="#D1D5DA" width="5.3" height="26.1"/>
	<rect x="378.2" y="31.1" fill="#B2BBC4" width="7.9" height="23.4"/>
	<rect x="401.1" y="31.9" fill="#F6F8FA" width="5.3" height="22.6"/>
	<polygon fill="#F2F4F5" points="390.8,54.6 386.2,51.6 396.2,31.9 400.8,34.9 	"/>
</g>
<g>
	<rect x="172.4" y="147.2" fill="#D1D5DA" width="3.9" height="30.7"/>
	<rect x="151.3" y="150.2" fill="#B2BBC4" width="5.9" height="27.6"/>
	<rect x="168.3" y="151.1" fill="#F2F4F5" width="3.9" height="26.7"/>
	<polygon fill="#F2F4F5" points="162.4,177.4 157.5,175.6 163.8,152.7 168.1,154.7 	"/>
</g>
<rect x="58.5" y="63.5" fill="#EBEFF3" width="86.3" height="3"/>
<rect x="58.7" y="97.2" fill="#EBEFF3" width="86.5" height="2.4"/>
<rect x="58.7" y="136.2" fill="#EBEFF3" width="86.5" height="2.4"/>
<path fill="#EBEFF3" d="M127.2,121.9c-1,0.7-1.7,1.4-2.1,2.1c-0.8,1.3-0.9,2.9-0.3,4.2c1.1,2.6,2.8,8.1-3,8l-12.8-0.2
	c0,0-0.2-1.4-0.4-2.2c-0.2-0.8,0.4-3,1-3.9c0.7-0.9,3.1-1.3,2.7-2.4c-0.3-0.8-1.1-2.3-1.5-3.4c-1,0.6-2.9,0.9-3.8,0.9
	c-3.4,0-5.8-1.5-5.8-5c0-0.6,0-1.3,0.1-2c0.2-0.1,0.4-0.2,0.5-0.2c1.2,0,1.4,2.9,2.9,3.8c1.3,0.8,4.6,0.5,6,1
	c0.1-0.1,0.2-0.3,0.3-0.4c-2.7-0.1-5.9-1.3-5.9-3.6c0-2.5,3.7-5.3,6.5-5.3c0.6,0,1.2,0.1,1.7,0.3c0.1-0.3,0.2-0.7,0.5-1
	c0.6-0.9,1.6-1.4,2.1-1c0.5,0.4,0.5,1.4-0.2,2.4c-0.2,0.3-0.4,0.5-0.6,0.7c0.9,0.8,1.5,1.9,1.5,3.2c0,1.7-1.1,3.2-2.6,3.9
	c0.1,0,0.1,0,0.2,0c2.8,0.7,4,4.3,4.9,6.2c0.2,0.4,0.4,1,0.7,1.8c0.8-0.7,1.7-2,1.1-3.9c-0.9-3-1.6-8.7,3.3-9
	C129.1,116.7,130.4,119.7,127.2,121.9z M109.4,116.8c-0.3,0-0.6,0.3-0.6,0.6c0,0.3,0.3,0.6,0.6,0.6s0.6-0.3,0.6-0.6
	C110,117.1,109.7,116.8,109.4,116.8z"/>
<rect x="60.2" y="147.1" fill="#EBEFF3" width="5.3" height="27.6"/>
<path fill="#B2BBC4" stroke="#010101" stroke-width="0.6629" stroke-miterlimit="10" d="M383.2,59.2"/>
<g>
	<ellipse fill="#E2E4E8" cx="392.8" cy="82.9" rx="8.2" ry="11.9"/>
	<path fill="#D1D5DA" d="M385.7,99.8l11.8,0.2l-3.4-5.3c0,0-2.2,0.2-2.8-0.1C390.7,94.4,385.7,99.8,385.7,99.8z"/>
	<path fill="#D1D5DA" d="M392.9,69.4c-0.9-2.1-12.7,1.4-14,9.6c-0.6,4,0,13.8,8.1,15.7c0,0-3.5-9-2.4-11.9c1.1-2.9,7.3,1.5,8.8-3.6
		C394.8,74.2,392.9,69.4,392.9,69.4z"/>
	<path fill="#D1D5DA" d="M400.3,93.5c0,0,17.5-18.7-3.7-24.2c0,0-6.5-2.7-2.6,4.8c0,0,4,5.3,6.9,6.7S400.3,93.5,400.3,93.5z"/>
</g>
<rect y="220.5" fill="#E1E4E8" width="458.8" height="1.5"/>
<ellipse fill="#F2F4F5" cx="233.4" cy="265.9" rx="203.5" ry="26.5"/>
<polygon fill="#959DA5" points="246.5,248.5 245.8,203.6 289.8,203.1 286.2,249 285,247.9 286.2,209.1 249.8,208.7 247.8,249.6 "/>
<polygon fill="#959DA5" points="234.9,139 235,194.7 234.4,239.5 237.3,240 238.4,201.2 279.9,199.9 277.6,237.7 280.6,239.4 
	283.5,192.5 284.2,138.8 "/>
<polygon fill="#B2BBC4" points="175,145.2 220.4,142.9 218.4,203.2 175,203.2 "/>
<polygon fill="#959DA5" points="170.8,140.5 170.9,240.8 172.8,242.4 177,242.5 176.1,203.9 218.1,203.7 216.8,239.5 219.1,241.2 
	222.6,241.2 225.6,140.8 "/>
<polygon fill="#D2D5DA" points="225.6,140.8 173.5,140.4 173.5,191.7 224.5,191.8 "/>
<polygon fill="#D2D5DA" points="237.1,138.9 237.2,194.5 237.3,239.8 241.3,239.5 240.6,201.1 282.1,199.7 280.6,239.2 285.1,239 
	285.7,192.3 286.4,138.7 "/>
<polygon fill="#D2D5DA" points="247.8,249.6 247.1,204.7 292.6,204.1 292.1,248.9 286.2,249 287.5,210.2 252.1,210 252.6,249.5 "/>
<g>
	<polygon fill="#959DA5" points="177.4,250.3 177.1,207.6 228.8,207.2 225.2,251.4 223.2,250.3 224.4,211.3 181,211.3 179.2,251.6 	
		"/>
	<polygon fill="#D2D5DA" points="179.2,251.6 178.7,207.6 230.4,207.2 229.4,251.4 225.2,251.4 226.1,211.3 183.6,211.2 
		184.5,251.3 	"/>
</g>
<path fill="#3667B1" d="M266.5,246.7c0,0-0.1,0-0.1,0c-1.5-0.1-3.1-1.4-4.7-4.1c-1.6-2.8-2-5.6-2.4-9.4c-0.4-3.7-1-8.3-2.9-15.1
	c-3.9-13.3-15-18.8-15.1-18.8l0.6-1.2c0.5,0.2,11.8,5.8,15.8,19.6c2,6.8,2.5,11.5,3,15.3c0.4,3.7,0.8,6.3,2.3,8.9
	c1.3,2.2,2.5,3.4,3.6,3.5c0.7,0,1.4-0.5,2.2-1.5c0.8-1.1,1.6-1.5,2.4-2c1-0.5,2.1-1.1,3.6-3.1c2.6-3.4,6-22.5-5-32.5
	c-10.3-9.3-14.5-16.7-13.5-23.4c0.1-0.8,0.3-1.8,0.6-2.9l1.3,0.3c-0.2,1.1-0.4,2-0.6,2.8c-1,6.1,3.3,13.4,13,22.2
	c11.8,10.6,8,30.5,5.2,34.3c-1.7,2.2-3,2.9-4,3.5c-0.8,0.4-1.3,0.7-1.9,1.6C268.7,246,267.7,246.7,266.5,246.7z"/>
<path fill="#3667B1" d="M263.6,162.7l-1.2-0.5c0.9-2.1,1.8-4,2.6-5.6l1.2,0.6C265.4,158.8,264.5,160.7,263.6,162.7z"/>
<path fill="#3667B1" d="M280.4,245.6c-1.4,0-2.8-1.1-4-3.1c-0.6-1-1.1-2.2-1.6-3.6l1.3-0.4c0.4,1.4,0.9,2.5,1.5,3.4
	c1.1,1.9,2.2,2.5,2.9,2.4c0.4,0,0.8-0.3,1.1-0.9c0.2-0.5,0.3-1,0.4-1.4c0.4-1.6,0.9-2.7,4.2-4.6c4.6-2.5,8-10.4,5.6-20.5
	c-2.1-8.9-15.3-15.7-15.4-15.8l0.6-1.2c0.6,0.3,13.9,7.2,16.1,16.7c2.5,10.8-1.3,19.2-6.3,21.9c-3,1.7-3.2,2.5-3.5,3.7
	c-0.1,0.5-0.2,1-0.5,1.6c-0.5,1-1.2,1.6-2.2,1.7C280.5,245.6,280.4,245.6,280.4,245.6z"/>
<path fill="#3667B1" d="M196.3,250.4c-4.4,0-9.9-7.7-11.5-11.9c-1.1-3-0.5-5.8,0.4-9.8c0.4-1.9,0.9-4.1,1.3-6.7
	c1.1-7.4-4.1-18.3-4.1-18.4l1.2-0.6c0.2,0.5,5.4,11.3,4.3,19.2c-0.4,2.6-0.9,4.8-1.3,6.8c-0.8,3.7-1.4,6.4-0.5,9
	c1.6,4.4,7,11.2,10.4,11.1c1.9-0.1,1.9-0.6,2-1.7c0-0.7,0-1.6,0.6-2.4c1.8-2.4,8.7-14.4,7.2-25.4c-1.6-11.2-8.3-16.8-8.4-16.8l0.8-1
	c0.3,0.2,7.2,5.9,8.9,17.7c1.6,11.4-5.6,23.9-7.4,26.3c-0.4,0.5-0.4,1.1-0.4,1.7c0,1.2-0.1,2.8-3.2,3
	C196.4,250.4,196.4,250.4,196.3,250.4z"/>
<path fill="#3667B1" d="M212.2,249.5c-3,0-7.5-3.9-9.8-10.3l1.2-0.4c2.2,6.1,6.4,9.4,8.5,9.4c0,0,0.1,0,0.1,0c0.8,0,1.4-0.3,1.7-0.8
	c0.7-1,0.2-2.8,0.2-2.8l-0.1-0.3l0.2-0.3c5.9-7.8,8.7-15.9,8.3-24.1c-0.3-6.2-4.4-15.4-14.9-20.9l0.6-1.2c6.9,3.6,15.1,11.5,15.6,22
	c0.4,8.4-2.4,16.7-8.3,24.7c0.2,0.7,0.4,2.4-0.4,3.6c-0.6,0.8-1.5,1.3-2.7,1.3C212.3,249.5,212.3,249.5,212.2,249.5z"/>
<path fill="#3667B1" d="M136.3,180.1l-0.5-1.2l2.7-1.2c5.2-2.3,12.2-5.5,17.6-8.4c9.6-5.2,35.5-20.5,40.6-23.5l0.7,1.1
	c-5.1,3-31,18.4-40.7,23.5c-5.4,2.9-12.5,6.1-17.6,8.4L136.3,180.1z"/>
<path fill="#3667B1" d="M138.9,162.1l-0.4-1.3c11.2-3.5,34.9-12.1,43.7-15.7c2.4-1,8.5-2.3,12.9-3.3l1.2-0.3l0.3,1.3l-1.2,0.3
	c-4.4,0.9-10.3,2.2-12.7,3.2C173.9,150,150.1,158.5,138.9,162.1z"/>
<path fill="#3667B1" d="M202.7,143.3c-8.5,0-17.4-2.2-23.8-9.4c-6.7-7.6-12.4-26.5-5.1-40.9l1.2,0.6c-7,13.9-1.6,32.1,4.9,39.5
	c15.3,17.3,46.3,4.4,47.6,3.8c5.6-2.4,10-5.2,12.6-8.1c2.8-3.1,3.7-4.6,2.2-7.7c-0.2-0.4-0.4-0.7-0.8-1.1c-0.9-1.2-2-2.6-1.9-5.7
	c0-1.1,0.3-2.5,0.5-4.3c1.5-9.8,4.3-28.1-15.2-34.2c-11-3.5-21.3-3-30.5,1.3l-0.6-1.2c9.5-4.5,20.1-5,31.5-1.4
	c20.6,6.5,17.6,26.2,16.1,35.7c-0.3,1.7-0.5,3.1-0.5,4.1c-0.1,2.6,0.8,3.7,1.6,4.9c0.3,0.4,0.6,0.8,0.9,1.3c2,3.9,0.3,6.2-2.4,9.2
	c-2.7,3-7.2,5.9-13,8.4C227.2,138.4,215.4,143.3,202.7,143.3z"/>
<path fill="none" stroke="#3667B1" stroke-width="1.3257" stroke-miterlimit="10" d="M129.3,194.7"/>
<path fill="#3667B1" d="M182.8,137.4c-3.2-1.8-8.4-5.3-15-10.2c-7.5-5.7-22.6-30.5-22.2-32.6l0.1-0.4l0.5-0.2l0,0.2l0-0.2l4.9,0.2
	l-4,1c1.4,3.8,14.5,25.7,21.5,31c6.5,4.9,11.6,8.4,14.8,10.1L182.8,137.4z"/>
<path fill="#3667B1" d="M182.6,146.3c-36.1-6.8-64.8-52.2-65.1-52.6l-0.7-1.1l1.6,0.1l0,0.4l0.2-0.1c0.3,0.5,28.7,45.4,64.2,52
	L182.6,146.3z"/>
<path fill="#3667B1" d="M138.8,175.1c-0.1,0-0.2,0-0.3,0l0-1.3c1.4,0,2.9-0.3,4.4-0.8c1.9-0.7,3.4-1.8,4.4-3
	c0.9-1.1,1.3-2.2,0.9-3.1c-0.3-0.9-1.3-1.4-2.7-1.7c-1.6-0.2-3.5,0-5.3,0.8c-0.1,0-0.2,0.1-0.3,0.1l-0.5-1.2
	c0.1-0.1,0.2-0.1,0.4-0.1c2.1-0.8,4.2-1.1,6-0.8c1.9,0.3,3.3,1.2,3.8,2.5c0.5,1.3,0.1,2.9-1.1,4.4c-1.2,1.4-2.9,2.6-5,3.4
	C141.9,174.8,140.2,175.1,138.8,175.1z"/>
<path fill="#3667B1" d="M156.3,166.9c-0.4,0-0.8,0-1.2-0.1c-1.8-0.2-3-1-3.4-2.2c-0.4-1.2,0-2.6,1.1-3.9c1.1-1.2,2.7-2.3,4.6-3
	c1.9-0.7,3.8-1,5.4-0.7c1.8,0.2,3,1,3.4,2.2c0.9,2.3-1.6,5.3-5.7,6.9C159.1,166.6,157.6,166.9,156.3,166.9z M161.6,158.3
	c-1.2,0-2.5,0.3-3.8,0.7c-1.7,0.6-3.1,1.5-4,2.6c-0.8,0.9-1.1,1.9-0.9,2.6v0c0.3,0.7,1.1,1.2,2.3,1.4c1.4,0.2,3.1,0,4.7-0.7
	c3.6-1.3,5.4-3.7,4.9-5.2c-0.3-0.7-1.1-1.2-2.3-1.4C162.3,158.3,162,158.3,161.6,158.3z"/>
<path fill="#3667B1" d="M148.3,121.3c-3.1,0-6.9-2.9-9.3-7.4c-1.8-3.3-2.4-6.8-1.5-9.1c0.4-1.2,1.3-2,2.3-2.4
	c3.2-1.1,7.9,2,10.7,7.2c1.8,3.3,2.4,6.8,1.5,9.1c-0.4,1.2-1.3,2-2.3,2.4C149.3,121.3,148.8,121.3,148.3,121.3z M141.3,103.6
	c-0.3,0-0.7,0.1-1,0.2l0,0c-0.7,0.2-1.2,0.8-1.5,1.6c-0.7,1.9-0.2,5,1.4,8c2.4,4.4,6.6,7.4,9.1,6.5c0.7-0.2,1.2-0.8,1.5-1.6
	c0.7-1.9,0.2-5-1.4-8C147.3,106.4,143.8,103.6,141.3,103.6z"/>
<path fill="#3667B1" d="M161.6,133.6c-2.5,0-5.7-2-7.7-4.9c-1.4-2.1-2-4.4-1.4-6c0.4-1,1.1-1.7,2.1-2c2.6-0.8,6.5,1.3,8.9,4.8
	c1.4,2.1,2,4.4,1.4,6c-0.4,1-1.1,1.7-2.1,2h0C162.4,133.5,162,133.6,161.6,133.6z M155.8,121.8c-0.3,0-0.5,0-0.8,0.1
	c-0.6,0.2-1,0.6-1.2,1.1c-0.4,1.2,0,3,1.2,4.8c2,2.9,5.3,4.8,7.4,4.3l0,0c0.6-0.2,1-0.6,1.2-1.1c0.4-1.2,0-3-1.2-4.8
	C160.7,123.7,157.9,121.8,155.8,121.8z"/>
<path fill="#3667B1" d="M176.5,142.2c-2,0-4.4-0.9-6.3-2.5c-1.7-1.5-2.7-3.3-2.6-4.8c0.1-0.9,0.5-1.7,1.4-2.2l0,0
	c2.1-1.3,5.9-0.5,8.7,1.9c1.7,1.5,2.7,3.3,2.6,4.8c-0.1,0.9-0.5,1.7-1.4,2.2C178.3,142,177.5,142.2,176.5,142.2z M169.7,133.8
	c-0.5,0.3-0.7,0.7-0.7,1.2c-0.1,1.1,0.7,2.5,2.1,3.7c2.3,1.9,5.6,2.8,7.2,1.8c0.5-0.3,0.7-0.7,0.7-1.2c0.1-1.1-0.7-2.5-2.1-3.7
	C174.6,133.7,171.3,132.9,169.7,133.8L169.7,133.8z"/>
<path fill="#3667B1" d="M172.5,157.6c-1.4,0-2.5-0.4-2.9-1.4c-0.4-0.9,0-2.1,1.3-3.3c1.1-1.1,2.7-2.1,4.5-2.9c3.5-1.5,7.5-2,8.4,0
	c0.4,0.9,0,2.1-1.3,3.3c-1.1,1.1-2.7,2.1-4.5,2.9C176.2,157,174.1,157.6,172.5,157.6z M180.8,150c-1.2,0-3,0.3-5,1.2
	c-1.7,0.7-3.1,1.7-4.1,2.6c-0.9,0.9-1.1,1.6-1,1.9c0.3,0.8,3.1,0.9,6.7-0.7c1.7-0.7,3.1-1.7,4.1-2.6c0.9-0.9,1.1-1.6,1-1.9
	C182.4,150.2,181.8,150,180.8,150z"/>
<path fill="#3667B1" d="M173.7,95.7c-0.3-3.5,0.6-9.5,2.8-13.5c0.1-0.1,7-12.3,13.1-11.1c3.7,0.7,6,5.7,7.1,15.3l-1.3,0.2
	c-1-8.7-3.1-13.5-6.1-14.1c-4.3-0.8-10.1,7.5-11.7,10.5c-2.1,3.7-3,9.4-2.7,12.8L173.7,95.7z"/>
<path fill="#3667B1" d="M182.5,137.2c-0.7-1.1-1.2-2.2-1.4-3.5c0-0.2-0.1-1.4,1.1-4.5c0.6-1.6-0.4-3.9-1.5-6.2
	c-0.7-1.6-1.5-3.3-1.8-4.8c-0.8-4.3,1.2-17.4,14.4-22c0.2-0.1,5.8-2.4,14.4-0.2c7,1.7,12.4,1.2,16.6-1.5l0.5-0.3
	c4-2.6,11.4-7.4,14.6-3.2c2.9,3.8,2.9,8.9,2.9,9.1l-1.3,0c0,0,0-4.9-2.6-8.3c-2.5-3.2-9.5,1.3-12.8,3.5l-0.5,0.3
	c-4.5,2.9-10.3,3.4-17.6,1.6c-8.2-2-13.6,0.2-13.6,0.2c-12.2,4.2-14.2,16.7-13.5,20.5c0.2,1.4,1,3,1.7,4.5c1.2,2.5,2.4,5.2,1.5,7.3
	c-1.1,2.7-1.1,3.8-1.1,3.8c0.2,1,0.6,2,1.2,2.9L182.5,137.2z"/>
<path fill="#3667B1" d="M216.7,132.4c-0.4,0-0.9,0-1.2-0.1c-1.1-0.3-1.4-0.9-1.5-1.3s0-1.1,1-1.7c0.6-0.4,1.4-0.7,2.2-0.8
	c0.9-0.1,1.7-0.1,2.4,0c1.1,0.3,1.4,0.9,1.5,1.3v0c0.2,1.3-1.5,2.2-3.2,2.5C217.4,132.4,217,132.4,216.7,132.4z M218.3,129.7
	c-0.3,0-0.6,0-0.9,0.1c-1.4,0.2-2.1,0.8-2.1,1c0.1,0.1,0.9,0.5,2.3,0.2c1.3-0.2,2-0.8,2.1-1C219.6,129.9,219.1,129.7,218.3,129.7z"
	/>
<path fill="#3667B1" d="M288.5,142.6c-14.2,0-24.1-4.3-29.6-12.8c-0.9-1.5-1.2-3.2-0.7-4.8c0.4-1.5,1.3-2.7,2-3.6
	c0.1-0.2,0.3-0.3,0.4-0.5c1.5-2.2,1.5-4.1,0.9-7.3c-0.7-3.3-2.3-12-2.3-12.1c-0.9-15.3,8.6-26.5,26.7-31.4c6.6-1.8,13.1-1.8,19.4,0
	l-0.4,1.3c-6-1.7-12.3-1.7-18.6,0c-17.4,4.8-26.5,15.4-25.7,30c0,0,1.7,8.7,2.3,12c0.7,3.4,0.7,5.8-1.1,8.3
	c-0.1,0.2-0.3,0.3-0.4,0.5c-0.7,0.9-1.4,1.9-1.8,3.2c-0.4,1.2-0.1,2.6,0.6,3.7c5.8,9,16.9,13.1,33.1,12.1
	c13.6-0.8,23.5-5.3,29.6-13.4c9.9-13.3,5.8-31.8,5.8-32c-1.1-4.8-3.6-9.6-7.3-13.8l1-0.9c3.8,4.3,6.4,9.4,7.5,14.4
	c0,0.2,4.3,19.3-6,33.1c-6.3,8.4-16.6,13.1-30.6,13.9C291.6,142.5,290,142.6,288.5,142.6z"/>
<path fill="#3667B1" d="M199.3,190.5l-14.7-4.7l0.2-0.6c0.1-0.3,7.8-25.9,10.2-35.1c0.9-3.5,2.3-6.2,4-8l1,0.9
	c-1.6,1.7-2.8,4.2-3.7,7.5c-2.2,8.4-8.8,30.5-10,34.5l13.2,4.2l11.1-0.8c-0.2-3.5-0.2-7.5-0.1-11.7c0.2-10.5,0.3-22.5-3.5-34.1
	l1.3-0.4c3.9,11.8,3.7,23.9,3.5,34.5c-0.1,4.4-0.1,8.6,0.1,12.2l0.1,0.7L199.3,190.5z"/>
<path fill="#3667B1" d="M200,189.9l-1.3-0.2c2.3-19.8,3.5-33.1,3.4-39.8l1.3,0C203.5,156.7,202.3,170.1,200,189.9z"/>
<path fill="#3667B1" d="M261.2,88.9c-0.7-1.6-6.3-15.5-3.7-18.6c0.4-0.6,1.1-1,2.3-1.2c4-0.8,11.9,0.7,17.4,4.4l-0.7,1.1
	c-5.7-3.8-13.2-4.9-16.4-4.2c-1,0.2-1.3,0.5-1.4,0.7l-0.1,0.1c-1.5,1.7,1.4,11.1,3.9,17.2L261.2,88.9z"/>
<path fill="#3667B1" d="M322.1,85c0-0.2-4.1-16.2-11-17.5c-4.2-0.7-10,9.4-11.9,13.4l-1.2-0.6c0.7-1.6,7.3-15.2,13.3-14.1
	c7.7,1.4,11.8,17.8,12,18.4L322.1,85z"/>
<path fill="#3667B1" d="M274,125.6c-0.2,0-0.4,0-0.6,0c-0.9-0.1-1.7-0.3-2.4-0.6c-1.1-0.6-1.2-1.3-1.2-1.6s0.2-1,1.4-1.4
	c0.7-0.2,1.5-0.3,2.4-0.3c1.8,0.1,3.7,1,3.6,2.3l0,0c0,0.4-0.2,1-1.4,1.4C275.4,125.5,274.7,125.6,274,125.6z M273.2,122.9
	c-1.2,0-1.9,0.4-2,0.5c0.1,0.2,0.9,0.7,2.3,0.8c1.4,0.1,2.3-0.3,2.4-0.5c-0.1-0.2-0.9-0.7-2.3-0.8
	C273.5,122.9,273.3,122.9,273.2,122.9z"/>
<path fill="#3667B1" d="M295.2,142.2l-0.4-1.3c7-2.4,10.9-4.7,12.1-7.2c0.9-1.9,0.1-3.9-0.8-6.1c-0.4-0.9-0.8-1.9-1-2.8
	c-0.9-3.1,1.6-6.7,4.2-10.5c0.6-0.9,1.3-1.9,1.9-2.8c5-7.9,0.1-14.8-1-16.1c-2.6-3.2-9.2-5.7-16.9-4.1c-5.7,1.2-13.9,2.6-15.6,2.5
	c-0.6,0.1-7,0.4-10.8-4c-0.8-0.9-1.6-1.4-2.4-1.4c0,0,0,0,0,0c-1,0-1.9,0.8-2.4,1.4l-1-0.8c1-1.3,2.2-1.9,3.4-1.9c0,0,0,0,0,0
	c1.2,0,2.4,0.6,3.4,1.9c3.4,4,9.1,3.6,9.7,3.6c1.5,0,9.3-1.2,15.3-2.5c8.6-1.8,15.5,1.1,18.2,4.5c1.1,1.4,6.5,9,1,17.7
	c-0.6,0.9-1.2,1.9-1.9,2.8c-2.3,3.4-4.7,6.9-4,9.4c0.3,0.9,0.6,1.8,1,2.7c0.9,2.3,1.9,4.7,0.8,7.2
	C306.7,137.2,302.6,139.7,295.2,142.2z"/>
<path fill="#3667B1" d="M313.1,175.1c-1.9-9.7-0.4-18,4-22.8c3.3-3.6,8-5.1,13.9-4.4c4,0.4,6.9,1.9,8.7,4.2c3,4,2.1,9.6,1.5,13
	c-0.1,0.5-0.2,1-0.2,1.3c-0.1,0.6-0.1,1.1-0.2,1.7c-0.2,2.2-0.3,4.4-3.4,4.3c-2.7-0.1-4.6-2.5-6.6-4.8c-2-2.3-3.8-4.5-6.2-4.5v-1.3
	c3,0,5.2,2.5,7.2,5c1.8,2.2,3.5,4.2,5.6,4.3c1.6,0.1,1.8-0.7,2-3c0-0.5,0.1-1.1,0.2-1.7c0.1-0.4,0.1-0.9,0.2-1.4
	c0.5-3.1,1.4-8.4-1.3-11.9c-1.6-2.1-4.2-3.3-7.8-3.7c-5.5-0.6-9.8,0.7-12.8,4c-4.1,4.5-5.5,12.4-3.7,21.7L313.1,175.1z"/>
<path fill="#3667B1" d="M241.7,187.1c0-0.3-0.5-7.2,3.8-17l1.2,0.5c-4.2,9.5-3.7,16.3-3.7,16.4L241.7,187.1z"/>
<path fill="#3667B1" d="M253.5,159.4l-1.1-0.8c5.3-7,12.4-13.5,21.2-19.2l0.7,1.1C265.7,146.1,258.7,152.5,253.5,159.4z"/>
<path fill="#3667B1" d="M271.8,165.6l-1.3-0.4c1.2-3.4,2.5-6.5,3.9-9.4l1.2,0.6C274.3,159.2,273,162.3,271.8,165.6z"/>
<path fill="#3667B1" d="M266.6,190c0,0-0.2-2.2-0.3-4.5l1.3-0.1c0.1,2.2,0.3,4.4,0.3,4.4L266.6,190z"/>
<path fill="#3667B1" d="M316.9,184.3c-4.7,0-8-1.3-8.2-1.4c-7.5-5-21.4-14.3-29.4-21.1c-9.3-7.8-8.2-17.4-7.3-21.2l1.3,0.3
	c-1.1,4.4-1.6,12.8,6.8,19.8c8,6.7,21.8,16.1,29.3,21c0,0,0,0,0,0c0,0,3,1.2,7.4,1.2c4.7,0,15-1.4,15-5.6c0-0.7-0.1-1.4-0.2-2.1
	c-0.1-0.7-0.2-1.3-0.2-1.9c0-1.9,0.2-3.5,0.4-5.1l1.3,0.2c-0.3,1.5-0.4,3.1-0.4,4.8c0,0.5,0.1,1.1,0.2,1.8c0.1,0.7,0.2,1.5,0.2,2.2
	C333.2,183.1,321.1,184.3,316.9,184.3z"/>
<path fill="#3667B1" d="M312.7,167.1c-5-2-17.6-7.8-24.2-11.9c-7.7-4.9-10.2-7.5-11.5-10c-1.3-2.4-1.8-3.6-1.8-3.6l1.2-0.5
	c0,0,0.5,1.1,1.7,3.5c1.2,2.3,3.6,4.8,11,9.5c6.5,4.1,19,9.9,23.9,11.8L312.7,167.1z"/>
<path fill="#3667B1" d="M278.9,145.9l-1.3-0.2c0.3-1.5,0.5-3.1,0.6-4.6l1.3,0.1C279.4,142.8,279.2,144.4,278.9,145.9z"/>
<path fill="#3667B1" d="M315.4,156.2c-12.6-3.7-23.2-8.4-31.5-13.9l0.7-1.1c8.2,5.5,18.7,10.1,31.2,13.7L315.4,156.2z"/>
<path fill="#3667B1" d="M357.2,163.2c-4.1,0-10-0.5-16.2-1.4l0.2-1.3c6.1,0.9,11.9,1.4,16,1.4c0.3,0,0.6,0,0.9,0l0,1.3
	C357.8,163.2,357.5,163.2,357.2,163.2z"/>
<path fill="#3667B1" d="M312.8,165.5c-20-8.8-30.9-18-34.6-21.5l0.9-1c3.7,3.5,14.5,12.5,34.3,21.2L312.8,165.5z"/>
<path fill="#3667B1" d="M348.5,177.4c-5.7-1.3-11.2-2.9-16.5-4.6l0.4-1.3c5.3,1.7,10.8,3.2,16.4,4.6L348.5,177.4z"/>
<path fill="#3667B1" d="M238.9,163.4c-1.1,0-2.4-0.2-3.6-0.7c-3.5-1.4-5.5-4.2-4.7-6.3c0.4-1.1,1.5-1.8,3.1-2c1.4-0.2,3.1,0,4.7,0.7
	c1.6,0.6,3,1.6,3.8,2.7c1,1.2,1.3,2.5,0.8,3.6C242.5,162.6,240.9,163.4,238.9,163.4z M234.7,155.5c-0.3,0-0.6,0-0.8,0.1
	c-0.6,0.1-1.7,0.4-2,1.2l0,0c-0.6,1.4,1.2,3.5,3.9,4.6c2.7,1.1,5.5,0.8,6-0.6c0.3-0.9-0.2-1.8-0.6-2.3c-0.7-0.9-1.9-1.8-3.3-2.3
	C236.8,155.7,235.7,155.5,234.7,155.5z"/>
<path fill="#3667B1" d="M257.1,171.3c-1.5,0-3.1-0.3-4.8-0.8c-3.1-1-5.4-2.8-6.2-4.6c-0.4-0.9-0.4-1.7,0-2.4
	c1.1-2.3,5.6-2.9,10.2-1.4c3.1,1,5.4,2.8,6.2,4.6c0.4,0.9,0.4,1.7,0,2.4l0,0C261.8,170.5,259.7,171.3,257.1,171.3z M251.5,162.6
	c-2.1,0-3.7,0.6-4.2,1.5c-0.2,0.4-0.2,0.8,0,1.3c0.6,1.5,2.7,3,5.4,3.8c4.1,1.4,7.8,0.7,8.5-0.8l0,0c0.2-0.4,0.2-0.8,0-1.3
	c-0.6-1.5-2.7-3-5.4-3.8C254.3,162.8,252.8,162.6,251.5,162.6z"/>
<path fill="#3667B1" d="M225.1,155.6c-1.1,0-2.5-0.4-3.9-1.3c-1.2-0.7-2.1-1.5-2.7-2.4c-0.7-1-0.9-2-0.4-2.7c0.8-1.4,3.4-1.2,6,0.3
	c1.2,0.7,2.1,1.5,2.7,2.4c0.7,1,0.9,2,0.4,2.7h0C226.8,155.3,226.1,155.6,225.1,155.6z M220.1,149.6c-0.5,0-0.8,0.1-0.9,0.3
	c-0.1,0.2,0,0.7,0.4,1.3c0.5,0.7,1.3,1.5,2.3,2c2.1,1.2,3.9,1.3,4.2,0.8c0.1-0.2,0-0.7-0.4-1.3c-0.5-0.7-1.3-1.5-2.3-2
	C222.1,149.9,220.9,149.6,220.1,149.6z"/>
<path fill="#3667B1" d="M320.1,183.7c-0.7-1.3-1-2.9-1-4.5c0-4.4,2.7-8,5.9-8s5.9,3.6,5.9,8c0,0.6,0,1.2-0.1,1.7l-1.3-0.2
	c0.1-0.5,0.1-1,0.1-1.5c0-3.7-2.1-6.7-4.6-6.7s-4.6,3-4.6,6.7c0,1.4,0.3,2.8,0.9,3.9L320.1,183.7z"/>
<path fill="#3667B1" d="M274.6,186.6c-0.2,0-0.4,0-0.6,0c-10.3-0.4-14.6-4.1-17.7-6.8c-0.4-0.4-0.9-0.7-1.3-1.1l0.8-1
	c0.4,0.3,0.9,0.7,1.3,1.1c3,2.6,7,6,16.9,6.4c5.6,0.2,9.4-2.7,10.8-5.6c0.7-1.6,0.6-3.2-0.3-4.1l-0.1-0.1c0,0-2.6-4.5-8.6-7.3
	c-4-1.9-8.9-3.5-14-5.3c-2.4-0.8-5-1.7-7.4-2.6c-3.4-1.2-6.8-2.4-10.2-3.6c-15.5-5.5-30.1-10.7-34.9-13.8l0.7-1.1
	c4.7,3.1,19.2,8.2,34.6,13.7c3.4,1.2,6.9,2.4,10.2,3.6c2.5,0.9,5,1.7,7.4,2.5c5.2,1.7,10.1,3.4,14.2,5.3c6.1,2.9,8.8,7.2,9.2,7.8
	c1.2,1.3,1.4,3.4,0.5,5.5C284.5,183.4,280.5,186.6,274.6,186.6z"/>
<path fill="#3667B1" d="M250.7,176.3c-29.1-14.7-42.1-28.7-42.2-28.9l1-0.9c0.1,0.1,13,14,41.9,28.6L250.7,176.3z"/>
<path fill="#3667B1" d="M235.9,81.3l-1.2-0.5c4.2-9.4,3.3-11.2,3.1-11.4l-0.1,0c-7.6-3.2-16.5,2.2-20,4.6l-0.8-1.1
	c3.7-2.6,13.1-8.2,21.3-4.8c0.3,0.1,0.6,0.2,0.8,0.6C240,70.2,239,74.5,235.9,81.3z"/>
<path fill="#3667B1" d="M261,181.3c0,0-3.7-2.9-6.6-2.2l0,0l0-0.1c-3.8,0.5-5.5,0.4-5.9-0.6c-0.4-0.9,0.5-1.8,1.2-2.4
	c3.7-3.2,17.8-4.1,18.3-4.1l0.1,1.2c-0.1,0-14.3,0.9-17.6,3.8c-0.9,0.8-0.9,1.1-0.9,1.1c0.1,0,0.8,0.5,5.4-0.2
	c0.4-0.1,0.8-0.1,1,0.1c2.9,0.3,5.6,2.5,5.8,2.6L261,181.3z"/>
<path fill="#3667B1" d="M229.4,76.4l-1.2-0.5c1.6-3.5,4.9-5.8,8.5-5.9l0,1.3C233.6,71.3,230.8,73.3,229.4,76.4z"/>
<path fill="#3667B1" d="M269,78.6c-2.6-3.7-4.8-6.3-8.9-6.3V71c5.1,0,7.7,3.6,10,6.8L269,78.6z"/>
<path fill="#3667B1" d="M182.2,90.8c0-0.4,0-0.9,0-1.4c0-5.7,0.7-12.7,6.6-16.2l0.7,1.1c-5.2,3.2-5.9,9.4-5.9,15.1
	c0,0.4,0,0.9,0,1.3L182.2,90.8z"/>
<path fill="#3667B1" d="M313.7,84.7c0-0.4-0.1-0.9-0.1-1.4c-0.3-4.2-0.9-11.9-4.7-13l0.4-1.3c4.7,1.3,5.3,9.4,5.6,14.2
	c0,0.5,0.1,1,0.1,1.3L313.7,84.7z"/>
<polygon fill="#D1D5DA" points="86.2,207.9 85.5,257.6 91.1,257.9 91.6,206.6 "/>
<polygon fill="#959DA5" points="93.5,206.2 91.6,206.6 91.1,257.9 94.5,254.6 "/>
<polygon fill="#B2BBC4" points="77.3,266.5 80.2,264.2 80.2,208.2 78.4,208.5 "/>
<path fill="#D1D5DA" d="M78.4,208.5l-6.4,1l-0.3,6.5c2.3,0.8,4.4,2.2,6.5,3.2L78.4,208.5z"/>
<path fill="#E2E4E8" d="M71.7,216.1l-2.3,50.5h7.9l0.9-47.3C76,218.2,74,216.8,71.7,216.1z"/>
<polygon fill="#959DA5" points="385.8,199.9 381.8,254.6 385.9,257.1 389.3,200.1 "/>
<polygon fill="#D1D5DA" points="385.9,257.1 391.4,256.9 392.8,200.2 389.3,200.1 "/>
<polygon fill="#B2BBC4" points="397.4,205.5 397.7,270.5 402.9,272.5 402.5,206 "/>
<path fill="#D1D5DA" d="M406.3,206.3l-3.8-0.4l0.1,9.3c1.3-0.2,2.7-0.3,4-0.4L406.3,206.3z"/>
<path fill="#E2E4E8" d="M402.6,215.2l0.4,57.2l5.1-0.6l-1.5-57C405.2,214.9,403.9,215,402.6,215.2z"/>
<polygon fill="#FFFAE1" points="105.9,189.2 85.8,201.8 135.3,201.6 140.6,191 "/>
<path fill="#FFF4B4" d="M83.8,192.5c0,0-2.3,3.3-1.9,5.3c0.4,2,1.9,3.5,3.9,4l49.5-0.2L83.8,192.5z"/>
<polygon fill="#959DA5" points="22.1,206.4 49.4,186.3 415.3,188 433,204.1 "/>
<polygon fill="#6A737D" points="22.1,206.4 433,204.1 433.5,209.5 22.5,213.5 "/>
<g>
	<path fill="#F2F4F5" d="M64.3,169.1c1.3,8,9.3,14.6,13.3,20.5c2.1,2.6,4.7,5.2,7.6,7.6c2.7-0.5,4.4-1.1,4.4-1.8c0,0,0,0,0,0
		l-1.2-28.7l-24.3,0C64,167.6,64.1,168.4,64.3,169.1z"/>
	<path fill="#E2E4E8" d="M77.6,189.6c-4-6-11.9-12.6-13.3-20.5c-0.2-0.7-0.3-1.5-0.3-2.4l-2.5,0l-0.5,28.7c0,0,0,0,0,0
		c0,1.4,6.4,2.6,14.3,2.6c3.8,0,7.3-0.3,9.9-0.7C82.3,194.9,79.7,192.3,77.6,189.6z"/>
	<path fill="#B2BBC4" d="M88.4,166.7C88.4,166.7,88.4,166.7,88.4,166.7c0,1.1-6,1.9-13.4,1.9s-13.4-0.9-13.4-1.9c0,0,0,0,0,0
		c0-1.1,6-1.9,13.4-1.9C82.4,164.8,88.4,165.7,88.4,166.7z"/>
	<path fill="#D2D5DA" d="M63.1,175.3l0.9-3c-4.1,1.6-9.4,2.2-9.4,9.4c0,2.3,0.8,2.8,0.8,4.2c0,0.6-0.4,0.9-0.9,0.9
		c-0.2,0-0.5-0.1-0.7-0.2c2,5.2,7.1,4.8,9.2,4.9l-0.1-3.2c0,0-7.3,0.4-6.8-6.3S63.1,175.3,63.1,175.3z"/>
	<path fill="#F2F4F5" d="M55.3,185.9c0-1.4-0.8-1.9-0.8-4.2c0-7.2,5.4-7.8,9.4-9.4l0.4-1.3c0,0-11.8,1.1-11.4,11
		c0.1,1.9,0.4,3.4,0.8,4.6c0.2,0.1,0.5,0.2,0.7,0.2C54.9,186.8,55.3,186.6,55.3,185.9z"/>
	<path fill="#6A737D" d="M71.6,175.5c0.2,0,0.3,0,0.5,0c0,0,0.1,0,0.1,0c0.2,0,0.4,0,0.5,0c1.6,0.2,3,1,4,2.4
		c0.9,1.3,1.4,2.8,1.4,4.4c0,0.4,0,0.9-0.1,1.3c-0.1,0.9-0.4,1.7-0.8,2.5c-0.7,1.2-1.6,2.1-2.7,2.7c-0.3,0.1-0.5,0.2-0.8,0.4
		c-0.1,0-0.1,0-0.2,0c-0.1-0.1-0.2-0.2-0.2-0.3c0-0.3,0-0.7,0-1c0-0.3,0-0.6,0-0.9c0-0.4-0.1-0.7-0.4-1c0.5,0,0.9-0.2,1.4-0.4
		c0.6-0.3,1-0.8,1.2-1.4c0.1-0.4,0.2-0.8,0.2-1.2c0.1-0.8-0.1-1.6-0.5-2.2c0,0,0-0.1,0-0.1c0.2-0.6,0.2-1.2,0-1.9
		c0-0.1,0-0.1-0.1-0.1c-0.2,0.1-0.5,0.1-0.7,0.2c-0.3,0.2-0.6,0.4-1,0.6c0,0-0.1,0-0.2,0c-0.6-0.1-1.1-0.2-1.7-0.2
		c-0.4,0-0.9,0.1-1.3,0.3c0,0-0.1,0-0.1,0c-0.2-0.1-0.4-0.3-0.6-0.4c-0.3-0.2-0.6-0.3-0.9-0.3c0,0-0.1,0-0.1,0.1
		c-0.2,0.6-0.2,1.2,0,1.8c0,0.1,0,0.1,0,0.2c-0.2,0.3-0.4,0.7-0.4,1.1c-0.1,0.7,0,1.4,0.2,2.1c0.1,0.4,0.3,0.7,0.5,0.9
		c0.4,0.4,0.8,0.6,1.3,0.8c0.2,0.1,0.4,0.1,0.6,0.1c-0.2,0.2-0.3,0.5-0.3,0.7c0,0,0,0.1-0.1,0.1c-0.3,0.1-0.6,0.2-1,0
		c-0.3-0.1-0.5-0.4-0.6-0.6c-0.1-0.2-0.3-0.4-0.6-0.6c-0.2-0.1-0.3-0.1-0.5-0.1c-0.1,0-0.1,0.1,0,0.2c0.1,0.1,0.1,0.2,0.2,0.2
		c0.3,0.2,0.5,0.5,0.6,0.9c0.1,0.3,0.3,0.5,0.6,0.7c0.2,0.2,0.5,0.2,0.8,0.2c0.2,0,0.4,0,0.6,0c0,0,0,0,0,0c0,0.3,0,0.7,0,1
		c0,0.2,0,0.3-0.2,0.3c-0.1,0-0.1,0-0.2,0c0,0-0.1,0-0.1,0c-0.6-0.2-1.1-0.5-1.6-0.9c-0.7-0.6-1.2-1.3-1.7-2.1
		c-0.4-0.7-0.6-1.5-0.7-2.4c0-0.1,0-0.2-0.1-0.3c0-0.2,0-0.4,0-0.6c0,0,0,0,0-0.1c0-0.3,0-0.6,0-0.9c0.1-1.9,0.9-3.4,2.1-4.6
		c0.9-0.9,2-1.4,3.2-1.6C71.4,175.5,71.5,175.5,71.6,175.5z"/>
</g>
<polygon fill="#FFF5BE" points="107,189.9 86,200 134.2,202 147,191.6 "/>
<path fill="#F27583" d="M122.4,194l-15.5-1c-0.4,0-0.5-0.2-0.1-0.3c0.4-0.2,1.1-0.3,1.5-0.2l15.5,1c0.4,0,0.5,0.2,0.1,0.3
	C123.5,193.9,122.8,194,122.4,194z"/>
<path fill="#F36B21" d="M113.2,197.7l-15.5-1c-0.4,0-0.5-0.2-0.1-0.3c0.4-0.2,1.1-0.3,1.5-0.2l15.5,1c0.4,0,0.5,0.2,0.1,0.3
	C114.3,197.6,113.6,197.7,113.2,197.7z"/>
<path fill="#F36B21" d="M110.1,198.9l-15.5-1c-0.4,0-0.5-0.2-0.1-0.3c0.4-0.2,1.1-0.3,1.5-0.2l15.5,1c0.4,0,0.5,0.2,0.1,0.3
	C111.2,198.8,110.5,198.9,110.1,198.9z"/>
<path fill="#F36B21" d="M124.5,195.6l-20.8-1.4c-0.4,0-0.5-0.2-0.1-0.3c0.4-0.2,1.1-0.3,1.5-0.2l20.8,1.4c0.4,0,0.5,0.2,0.1,0.3
	C125.6,195.5,125,195.6,124.5,195.6z"/>
<path fill="#F7ACB7" d="M121.4,196.8l-20.8-1.4c-0.4,0-0.5-0.2-0.1-0.3s1.1-0.3,1.5-0.2l20.8,1.4c0.4,0,0.5,0.2,0.1,0.3
	C122.6,196.7,121.9,196.8,121.4,196.8z"/>
<path fill="#F27583" d="M130.6,193.1l-20.8-1.4c-0.4,0-0.5-0.2-0.1-0.3c0.4-0.2,1.1-0.3,1.5-0.2l20.8,1.4c0.4,0,0.5,0.2,0.1,0.3
	C131.8,193,131.1,193.1,130.6,193.1z"/>
<path fill="#FFDD6B" d="M86,200c0,0-4.3-5.3-3.5-8.6c0,0,18.1,9.5,51.7,10.6C134.2,202,86,200,86,200z"/>
<g>
	<path fill="#4983C4" d="M126.5,153.5c-2.6-0.5-4.5-0.4-6.5,1.4l0.6,2.4c1.4-1.4,3.8-1.9,6.1-2.7L126.5,153.5z"/>
	<path fill="#83B7E3" d="M132.7,185.5l-6-30.9c-1.2,0.4-2.3,0.7-3.4,1.1c1.2,10.9,3.2,21.5,6.8,31.9c0.3,0,0.5-0.1,0.8-0.1
		C132.5,187.1,132.8,186.3,132.7,185.5z"/>
	<path fill="#4983C4" d="M120.6,157.3l7.7,29.3c0.2,0.9,0.9,1.1,1.8,1.1c-3.6-10.5-5.6-21-6.8-31.9
		C122.2,156.1,121.3,156.6,120.6,157.3z"/>
	<path fill="#4983C4" d="M124.3,151.9c-2.5-5.6-6.8-11.3-3.9-17.4c-1.4,0-2.8,0.4-4,1.1c-0.4,0.2-0.6,0.7-0.5,1.2l3.3,18
		c0,0.2,0.2,0.3,0.3,0.4c0.2,0,0.4,0,0.5-0.2c1.5-1.3,2.8-1.7,4.5-1.6C124.5,152.8,124.5,152.3,124.3,151.9z"/>
	<path fill="#83B7E3" d="M127.3,152.8l-4.9-17.6c-0.1-0.4-0.5-0.7-0.9-0.8c-0.4,0-0.7-0.1-1.1,0c-2.9,6.2,1.4,11.8,3.9,17.4
		c0.1,0.4,0.2,0.9,0.2,1.4c0.6,0,1.3,0.1,2,0.3c0.2,0.1,0.5,0.1,0.6-0.1C127.3,153.3,127.3,153,127.3,152.8z"/>
	<path fill="#959DA5" d="M120.4,132.7c-0.3-1.4-1.1-2.3-2.5-2c-0.7,0.2-1.1,0.5-1.3,1c1.3,0.3,2.4,1.3,3.2,2.5c0.3,0,0.6,0,1,0
		L120.4,132.7z"/>
	<path fill="#959DA5" d="M116.5,133.5l0.3,1.7c0.3-0.2,0.6-0.3,0.8-0.4c-0.3-0.7-0.7-1.3-1.3-1.8
		C116.5,133.1,116.5,133.3,116.5,133.5z"/>
	<path fill="#6B747E" d="M116.6,131.7c-0.1,0.3-0.2,0.7-0.1,1.2c0.5,0.6,0.9,1.2,1.3,1.8c0.7-0.3,1.3-0.5,2.1-0.5
		C118.9,133,117.8,132.1,116.6,131.7z"/>
	<g>
		<path fill="#D1D5DA" d="M117.6,142.3c-0.6-3.4,1.1-7.4,1.1-7.4l-0.6-0.2c-3.8,3.5-3.6,8.4-2.5,11.9
			C116.3,145.2,116.8,143.7,117.6,142.3z"/>
		<path fill="#D1D5DA" d="M116.3,148.7c0.4,1.1,0.9,1.9,1.2,2.2c1.1,1.6,0.7,1.9,0.9,2.7c0.2,0.8,3.6-0.3,3.7-1.9
			c0.1-1.4-1.3-3.2-2.9-5.7C118.3,146.9,117.3,147.8,116.3,148.7z"/>
		<path fill="#F6F8FA" d="M118.2,144.2c-0.3-0.6-0.5-1.2-0.6-1.8c-0.7,1.4-1.3,2.9-2,4.3c0.2,0.8,0.5,1.4,0.7,2
			c1-0.9,1.9-1.8,2.9-2.7C118.9,145.4,118.5,144.8,118.2,144.2z"/>
		<path fill="#959DA5" d="M117.2,137.2c0.4-1.5,0.9-2.5,0.9-2.5l-1.6,0.8c-1.7,1.6-2.6,3.4-2.9,5.2
			C114.7,139.5,115.9,138.3,117.2,137.2z"/>
		<path fill="#D2D5DA" d="M117.2,144.2c-0.6-1.1-0.7-2.5-0.6-3.8c-1,0.7-2.1,1.4-3.1,2.2c0.1,2.8,1.3,5.5,2.2,7.1
			c0.9-1.5,1.2-3.4,1.7-5.1C117.3,144.5,117.3,144.4,117.2,144.2z"/>
		<path fill="#959DA5" d="M117.4,144.6c-0.5,1.7-0.8,3.5-1.7,5.1c0.3,0.6,0.6,1,0.8,1.3c0.1,0.2,0.2,0.3,0.3,0.5
			c1.1-1,2.1-1.9,3.1-2.8C119.2,147.5,118.3,146.2,117.4,144.6z"/>
		<path fill="#6A737D" d="M116.8,151.5c0.7,1.2,0.4,1.5,0.6,2.2c0.2,0.8,3.6-0.3,3.7-1.9c0.1-0.8-0.4-1.9-1.2-3.1
			C118.9,149.6,117.9,150.5,116.8,151.5z"/>
		<path fill="#6A737D" d="M117.2,137.2c-1.3,1.1-2.5,2.3-3.6,3.5c-0.1,0.6-0.1,1.3-0.1,1.9c1-0.8,2-1.4,3.1-2.2
			C116.7,139.3,116.9,138.1,117.2,137.2z"/>
	</g>
	<path fill="#D2D5DA" d="M132.2,192.8l0-0.6c-0.1-0.1-0.1-0.1-0.2-0.1c0.1,0.2,0.1,0.5,0.1,0.7C132.2,192.9,132.2,192.8,132.2,192.8
		z"/>
	<path fill="#E8EAED" d="M132,192.2c-0.1,0-0.2,0.1-0.3,0.2c0.1,0.2,0.2,0.5,0.2,0.7c0.1,0,0.2-0.1,0.2-0.2
		C132.2,192.7,132.1,192.4,132,192.2z"/>
	<path fill="#6A737D" d="M131.5,192.8l0.1,0.1c0.1,0.2,0.2,0.2,0.4,0.2c-0.1-0.2-0.2-0.5-0.2-0.7
		C131.7,192.5,131.6,192.7,131.5,192.8z"/>
	<path fill="#B2BBC4" d="M129.7,186.4c0.2,1.1,0.8,2,1.5,3c-0.2-1.1-0.4-2.1-0.6-3.2C130.3,186.3,130,186.3,129.7,186.4z"/>
	<path fill="#959DA5" d="M130.6,186.2c0.2,1.1,0.4,2.1,0.6,3.2c0.4,0.5,0.7,1,1.1,1.5l0-1.3c-0.2-1.1-0.5-2.3-0.8-3.4
		C131.2,186.1,130.9,186.2,130.6,186.2z"/>
	<path fill="#B2BBC4" d="M132.4,186.2c-0.3,0-0.6-0.1-0.9-0.1c0.2,0.9,0.5,1.8,0.8,2.7L132.4,186.2z"/>
	<path fill="#F6F8FA" d="M131.5,186.1C131.5,186.1,131.5,186.1,131.5,186.1c0.3,1.1,0.5,2.3,0.8,3.4l0-0.7
		C132.1,188,131.8,187,131.5,186.1z"/>
	<path fill="#59606A" d="M129.7,186.4c-0.4,0.1-0.7,0.3-1.1,0.5l2.9,5.9c0.2-0.3,0.4-0.8,0.7-0.6l0-1.4
		C131.3,189.4,130,188.1,129.7,186.4z"/>
</g>
<path fill="#3667B1" d="M132.6,182c-1,0-1.7-0.3-1.7-0.4c-0.1,0-4.4-2.2-9.6-3.3c-12.4-2.6-10.5-14.8-10.5-14.9
	c0.3-6.6,5.1-12.1,11.7-13.4c6.1-1.1,11.7,1.8,15.7,8.3c4.3,7,1.2,15.9-0.4,19.4c-0.9,2.1-2.2,3.4-3.7,4
	C133.6,181.9,133.1,182,132.6,182z M125,151.2c-0.7,0-1.5,0.1-2.3,0.2c-6,1.1-10.4,6.1-10.6,12.2c-0.1,0.5-1.7,11.1,9.5,13.5
	c5.3,1.1,9.7,3.3,9.9,3.4c0,0,1,0.5,2.3,0c1.2-0.4,2.1-1.5,2.9-3.3c1.5-3.3,4.5-11.7,0.5-18.2C133.9,153.9,129.7,151.2,125,151.2z"
	/>
<g>
	<polygon fill="#E8EAED" points="147.9,190.6 133.2,195.5 278.2,198.1 268.8,194.1 	"/>
	<path fill="#F2F8FD" d="M179,191c0.5-3.3,1.6-5.9,3.6-8.1c-2.6,0-5.2,0.3-7.8,1.1c-16,4.7-26.5,2.9-26.5,2.9l-11.9,6.4
		c15.8,1.2,27.6,1.6,40.4,1.5C177.9,193.7,178.8,192.5,179,191z"/>
	<path fill="#DBECF9" d="M208.8,196.3l-0.8-4.9c0,0-11.9-8.6-25.4-8.5c-2,2.2-3.2,4.8-3.6,8.1c-0.3,1.5-1.1,2.7-2.2,3.8
		c8.3-0.1,17.1-0.4,27.5-0.8c0,0,1.8,3.1,4.7,2.9L208.8,196.3z"/>
	<path fill="#CBE0F4" d="M263.2,188.6c0,0-7.6,0.6-20.7-3c-11-3-29.6-0.7-34.4,5.8l0.8,4.9l0.1,0.7c1.3-0.1,2.8-0.8,4.5-2.7
		l61.7,1.2L263.2,188.6z"/>
	<g>
		<defs>
			<path id="SVGID_1_" d="M209.1,196.3c0,0-20.5-12.3-40.2-6.5c-19.3,5.6-31.8,3.5-31.8,3.5l-1.8,3.6l68.5-1.7c0,0,4.5,7.8,11.1,0.3
				l62,3.1l-1.6-3.3c0,0-9.1,0.7-24.9-3.6C237,188.1,214.9,188.5,209.1,196.3z"/>
		</defs>
		<clipPath id="SVGID_2_">
			<use xlink:href="#SVGID_1_"  overflow="visible"/>
		</clipPath>
		<path clip-path="url(#SVGID_2_)" fill="#959DA5" d="M209.1,196.3c0,0-20.5-12.3-40.2-6.5c-19.3,5.6-31.8,3.5-31.8,3.5l-1.8,3.6
			l68.5-1.7c0,0,4.5,7.8,11.1,0.3l62,3.1l-1.6-3.3c0,0-9.1,0.7-24.9-3.6C237,188.1,214.9,188.5,209.1,196.3z"/>
		<path clip-path="url(#SVGID_2_)" fill="#6A737D" d="M209,197.3c-21.8-11.5-34.1-8-44-5.1c-2.2,0.6-4.3,1.2-6.4,1.6
			c-10.8,2-24.7,0.2-24.8,0.2l0-0.3c0.1,0,13.9,1.7,24.7-0.2c2-0.4,4.1-1,6.3-1.6c10-2.8,22.3-6.4,44.2,5.2L209,197.3z"/>
		<path clip-path="url(#SVGID_2_)" fill="#6A737D" d="M209,197.3c-23.1-9.7-34.6-6.5-43.8-3.9c-2.7,0.8-5.2,1.5-7.7,1.8
			c-10.9,1.3-23.7-0.1-23.8-0.1l0-0.3c0.1,0,12.8,1.4,23.7,0.1c2.5-0.3,5-1,7.6-1.8c9.3-2.6,20.8-5.9,44,3.9L209,197.3z"/>
		<path clip-path="url(#SVGID_2_)" fill="#6A737D" d="M209,197.3c-7.3-3.2-22-5.7-39.3-2.4c-16.2,3.1-37.1,1-37.3,1l0-0.3
			c0.2,0,21,2.1,37.2-1c10.9-2.1,27.8-2.7,39.5,2.4L209,197.3z"/>
		<path clip-path="url(#SVGID_2_)" fill="#6A737D" d="M209.1,197.3L209,197c19.3-10.6,34.2-6.6,45.1-3.7c2,0.5,3.8,1,5.5,1.4
			c10.7,2.2,24.5,0.8,24.7,0.8l0,0.3c-0.1,0-14,1.4-24.8-0.8c-1.7-0.4-3.6-0.8-5.6-1.4C243.2,190.7,228.3,186.8,209.1,197.3z"/>
		<path clip-path="url(#SVGID_2_)" fill="#6A737D" d="M209.1,197.3L209,197c23.4-9.2,34.9-5.7,44.1-2.8c2.6,0.8,5.1,1.6,7.6,1.9
			c10.9,1.6,23.6,0.5,23.7,0.5l0,0.3c-0.1,0-12.9,1.1-23.8-0.5c-2.5-0.4-5-1.1-7.6-2C243.9,191.7,232.4,188.1,209.1,197.3z"/>
		<path clip-path="url(#SVGID_2_)" fill="#6A737D" d="M274.2,198.1c-7.4,0-17.2-0.4-25.7-2.2c-17.2-3.7-32-1.5-39.4,1.5L209,197
			c7.4-3,22.3-5.2,39.6-1.5c16.1,3.4,36.9,1.9,37.1,1.9l0,0.3C285.6,197.7,280.9,198.1,274.2,198.1z"/>
	</g>
	<path fill="#59606A" d="M280.8,202.2l-65-4.2c-0.9,1.7-2.9,3.4-7.2,3.2c-3.6-0.1-6.2-1.4-7.3-3.6l-69.7,2.1l1.6-4.2l70.6-0.8
		c1.6,1,0.8,2.4,4.9,2.5c3.7,0.1,3.2-1.2,4.6-2.7l64.9,3.5L280.8,202.2z"/>
</g>
<g>
	<path fill="#DBECF9" d="M271.5,172c3.8,1.1,5.5,4.9,5.5,4.9c-1.5-4-15-5.8-37.8-0.6C239.7,174.2,252.5,166.3,271.5,172z"/>
	<path fill="#DBECF9" d="M224.1,181.7c-1.8,0.2-3.3,0-4.4-0.4c-7.9,5.1-11.1,9.5-11.1,9.5l0.4,5.5c2.1-3.1,7.1-7.9,14.6-12.5
		c-0.1,0-0.2,0-0.2-0.1C222.8,183,224.7,181.7,224.1,181.7z"/>
	<path fill="#F2F8FD" d="M271.5,172l-15.7-3.5c-17.1,2.8-28.7,8.1-36.1,12.8c1.1,0.5,2.6,0.6,4.4,0.4c0.7,0-1.3,1.3-0.7,2
		c0.1,0,0.2,0,0.2,0.1C234.6,177.1,250.9,171,271.5,172z"/>
</g>
<g>
	<polygon fill="#85B4E1" points="312.5,183.5 344.9,192.1 413.3,189.6 371.4,185.7 	"/>
	<path fill="#4A7EC0" d="M413.3,189.6l15.8-42.4c-21.3,20.8-47.5,35.4-75.5,46L413.3,189.6z"/>
	<path fill="#85B4E1" d="M360.3,137.8l-16.6,56l10-0.6c28-10.6,54.2-25.2,75.5-46l4.2-11.3L360.3,137.8z"/>
	<g>
		<path fill="#F2F8FD" d="M396.1,165.5c-1.2,3.7-5.2,6.8-8.9,6.8s-5.7-3-4.5-6.8c1.2-3.7,5.2-6.8,8.9-6.8
			C395.3,158.7,397.3,161.8,396.1,165.5z"/>
		<path fill="#85B4E1" d="M385.5,172.1c0.1-0.3,0.2-0.6,0.3-0.8c0.4-1.1,0.6-2.5,1.8-3.1c-0.6-0.1-1-0.2-1.4-0.5
			c-0.8-0.7-0.5-2.6,0.4-3.7c0.2-0.2,0.4-0.4,0.6-0.7c0,0,0.2-1.1,0.5-1.2c0.6,0,1,0.7,1,0.7c0.5-0.1,1.5-0.3,1.9-0.3
			c1,0,1.3,0.2,1.3,0.2c0.5-0.4,0.9-0.6,1.5-0.7c0.1,0.5-0.3,1.3-0.3,1.3c-0.1,0.5-0.1,1-0.2,1.6c-0.3,1.4-1.4,3-3.3,3.4
			c0.4,0.1,0.6,0.4,0.6,0.8c0.4-0.1,0.8-0.1,1.2-0.4c0.4-0.4,0.4-0.9,0.8-1.4c0.4-0.5,0.8-0.6,1.4-0.7c0.1,0.2-0.1,0.2-0.3,0.4
			c-0.2,0.1-0.3,0.3-0.5,0.4c-0.3,0.3-0.2,1-0.3,1.4c-0.3,1-1.4,1.3-2.6,1.5c-0.1,0.5-0.4,1.3-0.5,1.7c-0.8,0.6-1.8,0.7-2.6,0.7
			c-0.4,0-0.8,0-1-0.3C385.6,172.2,385.5,172.3,385.5,172.1z"/>
	</g>
	<polygon fill="#4A7EC0" points="340.7,192.8 344.9,192.1 360.3,137.8 355,135.1 	"/>
	<polygon fill="#CBE0F4" points="426.1,132.2 355,135.1 360.3,137.8 433.4,135.9 	"/>
	<path fill="#4A7EC0" d="M318.2,187c-1.3-0.9-2.6-1.7-3.5-2.9l-2.3-0.6l-0.1,5.4l25,5.7C331,192.2,324.4,190.2,318.2,187z"/>
	<path fill="#85B4E1" d="M318.2,187c6.2,3.2,12.8,5.2,19.2,7.6l6.8,1.6l0.7-4l-30.2-8.1C315.6,185.3,316.9,186.1,318.2,187z"/>
	<g>
		<path fill="#3667B1" d="M324.7,189.4c-0.3-0.1-0.5-0.2-0.5-0.3l0-0.7c0-0.1,0.2-0.1,0.5,0l4.6,1.2c0.3,0.1,0.5,0.2,0.5,0.3l0,0.7
			c0,0.1-0.2,0.1-0.5,0L324.7,189.4z"/>
		<path fill="#3667B1" d="M330.4,191c-0.1,0-0.2-0.1-0.1-0.2l0-0.7c0-0.1,0.1-0.2,0.2-0.1l1.5,0.4c0.1,0,0.2,0.1,0.1,0.2l0,0.7
			c0,0.1-0.1,0.2-0.2,0.1L330.4,191z"/>
		<path fill="#3667B1" d="M333.6,191.7C333.6,191.7,333.6,191.7,333.6,191.7c-0.2-0.1-0.3-0.2-0.4-0.3c0,0,0,0,0,0
			c-0.1-0.1,0-0.3,0-0.4c0,0,0,0,0,0c0.1-0.1,0.2-0.1,0.3-0.1c0,0,0,0,0,0c0.1,0,0.3,0.1,0.3,0.3c0,0,0,0,0,0c0.1,0.1,0,0.3,0,0.4
			c0,0,0,0,0,0C333.9,191.7,333.8,191.8,333.6,191.7z"/>
	</g>
	<path fill="#3667B1" d="M413.3,189.6l-68.4,2.5l-0.2,1.3c22.8-2.2,45.7-0.8,68.5-2.6L413.3,189.6z"/>
	<path fill="#4A7EC0" d="M344.7,193.4l-0.4,2.7l68.6-2.8l0.3-2.4C390.3,192.7,367.5,191.2,344.7,193.4z"/>
</g>
<path fill="#3667B1" d="M369.1,160.8c-1.6,0-3.9-0.8-5.5-4.9c-2-5.2-1.7-13.4-1.1-19.4c0-0.2-0.1-0.5-0.4-0.8
	c-2.4-2.5-11.8-5.2-19-4.7l-0.1,0c-8.5,0.5-11.7,0.7-28.4,5.5l-0.4-1.3c16.8-4.8,20.3-5,28.6-5.5l0.1,0c7.7-0.5,17.4,2.4,20,5.1
	c0.6,0.6,0.9,1.2,0.8,1.9c-0.5,4.8-1,13.5,1,18.8c1.1,2.9,2.8,4.3,4.8,4c2.1-0.3,4.3-2.6,4.5-4.7c0.1-1.6,1.5-3.3,3.5-5.7
	c3.7-4.6,8.8-10.8,8.6-20.3c-0.1-2.5-1.3-4.6-3.7-6.4c-10-7.4-36.9-6.8-54.7-1.7l-0.4-1.3c23-6.6,47.4-4.3,55.9,1.9
	c2.8,2,4.2,4.5,4.2,7.4c0.2,10-5.3,16.8-8.9,21.2c-1.7,2-3.1,3.8-3.2,5c-0.2,2.8-2.8,5.5-5.6,6C369.6,160.8,369.4,160.8,369.1,160.8
	z"/>
<polygon fill="#F8C516" points="136.5,59.2 116.6,111 119,111.8 138.8,59.3 "/>
<polygon fill="#DCA82B" points="148,78.5 138.8,59.3 119,111.8 133,116.8 "/>
<g>
	<defs>
		<polygon id="SVGID_3_" points="138.5,61.6 120.3,111.6 129.4,115.1 147.5,61.8 		"/>
	</defs>
	<clipPath id="SVGID_4_">
		<use xlink:href="#SVGID_3_"  overflow="visible"/>
	</clipPath>
	<polygon clip-path="url(#SVGID_4_)" fill="#FFF4B4" points="138.5,61.6 147.5,61.8 129.4,115.1 120.3,111.6 	"/>
	
		<rect x="99.7" y="86.6" transform="matrix(0.3535 -0.9354 0.9354 0.3535 3.3331 178.6133)" clip-path="url(#SVGID_4_)" fill="#F7E197" width="62.3" height="0.7"/>
	<polygon clip-path="url(#SVGID_4_)" fill="#F7E197" points="123.3,117.8 122.7,117.6 143.7,57.8 144.3,58.1 	"/>
	
		<rect x="105.1" y="89" transform="matrix(0.327 -0.945 0.945 0.327 6.9806 188.4542)" clip-path="url(#SVGID_4_)" fill="#F7E197" width="61.5" height="0.7"/>
</g>
<polygon fill="#DCA82B" points="156.1,76.8 150.2,60.5 130.6,116.2 143.7,121 "/>
<polygon fill="#F8C516" points="147.2,60.2 128.6,115.6 130.6,116.2 150.2,60.5 "/>
<path fill="#3667B1" d="M141,102.4c-1.2,0-1.9-0.4-2.7-1c-1.4-0.9-3.6-2.2-9.9-3c-6-0.8-10-3-11.8-6.6c-3-5.9,1-13.1,1.1-13.4
	c3.8-6,11.2-8.7,18-6.7c6.9,2.1,10,6.2,11.3,15.3l0,0c1.2,8.2-1.8,12.4-2.8,13.5C143.2,101.7,142.1,102.4,141,102.4z M131.1,72.4
	c-4.9,0-9.6,2.4-12.3,6.7c0,0-3.7,6.9-1.1,12.1c1.6,3.2,5.2,5.1,10.8,5.9c6.6,0.9,8.9,2.3,10.4,3.2c0.8,0.5,1.3,0.8,2.1,0.8
	c0.6,0,1.4-0.5,2.2-1.3c1.8-2.1,3.4-6.4,2.5-12.5c-1.3-8.6-4-12.3-10.4-14.2C133.9,72.6,132.5,72.4,131.1,72.4z"/>
<path fill="#3667B1" d="M310.9,126.1l-0.6-1.2c1.7-0.9,3.7-1.7,5.9-2.3c2.9-0.7,5.1-0.9,5.2-0.9l0.1,1.3c0,0-2.2,0.1-4.9,0.8
	C314.4,124.5,312.5,125.3,310.9,126.1z"/>
<path fill="#3667B1" d="M311.6,129.5l-0.4-1.2c1.1-0.4,2.3-0.7,3.5-0.8c1.5-0.2,3.7-0.2,5.6,0.7l-0.5,1.2c-1.3-0.6-3.1-0.8-5-0.6
	C313.7,128.9,312.6,129.2,311.6,129.5z"/>
<path fill="#3667B1" d="M316.3,124c-0.3,0-0.6-0.2-0.6-0.5c-0.1-0.4,0.1-0.7,0.5-0.8c2.9-0.7,5.1-0.9,5.2-0.9c0.4,0,0.7,0.3,0.7,0.6
	c0,0.4-0.3,0.7-0.6,0.7c0,0-2.2,0.1-4.9,0.8C316.4,124,316.4,124,316.3,124z"/>
<path fill="#3667B1" d="M320.1,129.5c-0.1,0-0.2,0-0.3-0.1c-1.3-0.6-3.1-0.8-5-0.6c-0.4,0-0.7-0.2-0.7-0.6c0-0.4,0.2-0.7,0.6-0.7
	c1.5-0.2,3.7-0.2,5.6,0.7c0.3,0.1,0.5,0.5,0.3,0.9C320.6,129.3,320.3,129.5,320.1,129.5z"/>
<path fill="#3667B1" d="M259.6,123.2c-0.2,0-0.3-0.1-0.5-0.2c-2.3-2.3-6.8-3.1-6.9-3.1c-0.4-0.1-0.6-0.4-0.6-0.8
	c0.1-0.4,0.4-0.6,0.8-0.6c0.2,0,5,0.8,7.6,3.4c0.3,0.3,0.3,0.7,0,0.9C259.9,123.1,259.8,123.2,259.6,123.2z"/>
<path fill="#3667B1" d="M251.1,126.2c-0.3,0-0.6-0.3-0.7-0.6c0-0.4,0.2-0.7,0.6-0.7c0.2,0,4.6-0.5,7.8-0.4c0.4,0,0.7,0.3,0.6,0.7
	c0,0.4-0.3,0.7-0.7,0.6C255.7,125.7,251.2,126.1,251.1,126.2C251.2,126.1,251.1,126.2,251.1,126.2z"/>
<path fill="#3667B1" d="M242.1,119.9c-0.1,0-0.1,0-0.2,0c-0.3-0.1-0.5-0.5-0.4-0.8c1.2-3.3,7-5.2,8.6-4.9c0.4,0.1,0.6,0.4,0.5,0.8
	c-0.1,0.4-0.4,0.6-0.8,0.5c-1.2-0.2-6.2,1.5-7.1,4C242.6,119.7,242.4,119.9,242.1,119.9z"/>
<path fill="#3667B1" d="M243.6,122.4c-0.2,0-0.3-0.1-0.5-0.2c-0.3-0.3-0.2-0.7,0-0.9c1.6-1.5,6.3-2.1,8.6-1.1
	c0.3,0.2,0.5,0.5,0.3,0.9s-0.5,0.5-0.9,0.3c-1.8-0.8-6-0.3-7.2,0.8C243.9,122.3,243.8,122.4,243.6,122.4z"/>
<path fill="#3667B1" d="M179.5,129.3c-1.1-0.8-2.5-1.3-4.2-1.7c-2.4-0.5-4.6-0.4-4.6-0.4l-0.1-1.3c0.1,0,2.3-0.1,4.9,0.4
	c1.9,0.4,3.5,1.1,4.7,1.9L179.5,129.3z"/>
<path fill="#3667B1" d="M175.4,127.6c0,0-0.1,0-0.1,0c-2.4-0.5-4.6-0.4-4.6-0.4c-0.4,0.1-0.7-0.3-0.7-0.6c0-0.4,0.3-0.7,0.6-0.7
	c0.1,0,2.3-0.1,4.9,0.4c0.4,0.1,0.6,0.4,0.5,0.8C175.9,127.4,175.7,127.6,175.4,127.6z"/>
<path fill="#3667B1" d="M173.2,135.2l-1.1-0.7c0.6-1.1,1.9-2.3,3.3-3.1c1.6-0.9,3.2-1.3,4.6-1.2l-0.2,1.3c-1.1-0.1-2.5,0.2-3.8,1
	C174.8,133.3,173.7,134.3,173.2,135.2z"/>
<path fill="#3667B1" d="M172.6,135.5c-0.1,0-0.2,0-0.3-0.1c-0.3-0.2-0.4-0.6-0.2-0.9c0.6-1.1,1.9-2.3,3.3-3.1
	c0.3-0.2,0.7-0.1,0.9,0.2c0.2,0.3,0.1,0.7-0.2,0.9c-1.2,0.7-2.3,1.7-2.8,2.6C173.1,135.4,172.8,135.5,172.6,135.5z"/>
</svg>
